<?xml version="1.0" encoding="utf-8"?>
<!-- Generator: Adobe Illustrator 26.4.1, SVG Export Plug-In . SVG Version: 6.00 Build 0)  -->
<svg version="1.0" id="katman_1" xmlns="http://www.w3.org/2000/svg" xmlns:xlink="http://www.w3.org/1999/xlink" x="0px" y="0px"
	 viewBox="0 0 589.93 422.48" style="enable-background:new 0 0 589.93 422.48;" xml:space="preserve">
<style type="text/css">
	.st0{fill:#061800;}
	.st1{fill:#1D1D1B;}
</style>
<g>
	<path class="st0" d="M58.01,154.09h17.41c0.07,0,0.19,0.03,0.34,0.09c0.15,0.06,0.22,0.19,0.22,0.38l-14.84,79
		c-0.83,4.18-2.66,7.26-5.51,9.22c-2.85,1.96-5.7,3.12-8.55,3.47c-2.85,0.35-6.15,0.52-9.9,0.52c-2.62,0-5.43-0.25-8.43-0.76
		c-0.3,0-0.41-0.16-0.34-0.47l2.47-13.5c0.08-0.32,0.3-0.48,0.67-0.48l2.92,0.19c3.37,0.32,5.36,0.44,5.96,0.38
		c1.2,0,2.06-0.24,2.59-0.71c0.52-0.47,0.9-1.31,1.12-2.52l11.13-59.7"/>
	<path class="st0" d="M80.48,246.11c-2.55-0.32-4.91-1.24-7.08-2.76c-2.17-1.52-3.26-3.9-3.26-7.13c0-0.89,0.11-1.9,0.34-3.04
		l12.37-66.35c0.82-4.31,2.66-7.51,5.51-9.6c2.85-2.09,5.79-3.37,8.83-3.85c3.04-0.47,6.28-0.71,9.73-0.71
		c3.15,0,6.03,0.19,8.66,0.57c2.62,0.38,5.02,1.38,7.2,2.99c2.17,1.62,3.26,4.1,3.26,7.46c0,0.95-0.11,2-0.34,3.14l-12.37,66.35
		c-0.83,4.31-2.66,7.45-5.51,9.41c-2.85,1.97-5.68,3.12-8.49,3.47c-2.81,0.35-6.17,0.52-10.06,0.52
		C85.95,246.59,83.03,246.43,80.48,246.11z M94.7,230.43c0.64-0.38,1.11-1.33,1.41-2.85l10.46-55.8c0.07-0.38,0.11-0.86,0.11-1.43
		c0-0.95-0.23-1.54-0.68-1.76c-0.45-0.22-1.12-0.33-2.02-0.33c-0.98,0-1.78,0.21-2.42,0.62c-0.64,0.41-1.11,1.38-1.41,2.9
		l-10.46,55.8c-0.08,0.38-0.11,0.82-0.11,1.33c0,0.95,0.22,1.54,0.67,1.76c0.45,0.22,1.09,0.33,1.91,0.33
		C93.22,231,94.07,230.81,94.7,230.43z"/>
	<path class="st0" d="M179.77,154.57l-17.09,90.69c0,0.19-0.08,0.32-0.23,0.38c-0.15,0.06-0.26,0.09-0.34,0.09h-16.75
		c-0.08,0-0.19-0.03-0.34-0.09c-0.15-0.06-0.23-0.19-0.23-0.38l7.08-37.64h-7.31l-7.08,37.64c0,0.19-0.06,0.32-0.17,0.38
		c-0.11,0.06-0.21,0.09-0.28,0.09h-16.87c-0.07,0-0.19-0.03-0.34-0.09c-0.15-0.06-0.23-0.19-0.23-0.38l17.09-90.69
		c0-0.19,0.07-0.32,0.22-0.38c0.15-0.06,0.26-0.09,0.34-0.09h16.87c0.3,0,0.45,0.16,0.45,0.47l-7.2,37.93h7.31l7.2-37.93
		c0-0.19,0.06-0.32,0.17-0.38c0.11-0.06,0.21-0.09,0.28-0.09h16.87C179.58,154.09,179.77,154.25,179.77,154.57z"/>
	<path class="st0" d="M233.41,154.19c0.15,0.06,0.22,0.19,0.22,0.38l-17.09,90.69c0,0.19-0.08,0.32-0.23,0.38
		c-0.15,0.06-0.26,0.09-0.34,0.09h-16.75c-0.08,0-0.17-0.03-0.28-0.09c-0.11-0.06-0.21-0.16-0.28-0.28l-0.79-43.16l-8.1,43.06
		c0,0.19-0.08,0.32-0.23,0.38c-0.15,0.06-0.26,0.09-0.34,0.09h-16.75c-0.07,0-0.19-0.03-0.34-0.09c-0.15-0.06-0.23-0.19-0.23-0.38
		l17.09-90.69c0-0.19,0.07-0.32,0.22-0.38c0.15-0.06,0.26-0.09,0.34-0.09h16.75c0.07,0,0.17,0.02,0.28,0.05
		c0.11,0.03,0.21,0.14,0.28,0.33l0.79,43.16l8.1-43.06c0-0.19,0.07-0.32,0.22-0.38c0.15-0.06,0.26-0.09,0.34-0.09h16.75
		C233.14,154.09,233.26,154.12,233.41,154.19z"/>
	<path class="st0" d="M317.18,154.19c0.15,0.06,0.19,0.22,0.11,0.47l-31.37,90.69c-0.08,0.13-0.17,0.22-0.28,0.28
		c-0.11,0.06-0.21,0.09-0.28,0.09H268.6c-0.08,0-0.17-0.01-0.28-0.05c-0.11-0.03-0.21-0.14-0.28-0.33l1.46-37.64l-12.59,37.64
		c-0.08,0.19-0.17,0.3-0.28,0.33c-0.11,0.03-0.21,0.05-0.28,0.05h-16.75c-0.08,0-0.17-0.01-0.28-0.05
		c-0.11-0.03-0.21-0.14-0.28-0.33l2.59-90.69c0-0.38,0.23-0.57,0.68-0.57h16.75c0.07,0,0.17,0.03,0.28,0.09
		c0.11,0.06,0.21,0.16,0.28,0.28l-3.15,49.15l14.73-49.15c0.07-0.19,0.17-0.3,0.28-0.33c0.11-0.03,0.21-0.05,0.28-0.05h15.63
		c0.07,0,0.17,0.03,0.28,0.09c0.11,0.06,0.21,0.16,0.28,0.28l-3.71,49.15l15.29-49.15c0.07-0.13,0.17-0.22,0.28-0.28
		c0.11-0.06,0.21-0.09,0.28-0.09h16.75C316.92,154.09,317.03,154.12,317.18,154.19z"/>
	<path class="st0" d="M323.93,245.54c-0.08,0.13-0.23,0.19-0.45,0.19h-16.75c-0.22,0-0.37-0.06-0.45-0.19
		c-0.07-0.13-0.11-0.22-0.11-0.29l16.98-90.59c0-0.06,0.04-0.17,0.11-0.33c0.07-0.16,0.26-0.24,0.56-0.24h16.75
		c0.23,0,0.37,0.06,0.45,0.19c0.07,0.13,0.11,0.22,0.11,0.28l-17.09,90.69C324.04,245.32,324,245.41,323.93,245.54z"/>
	<path class="st0" d="M379.25,153.09c2.55,0.28,4.98,1.24,7.31,2.85c2.32,1.62,3.49,4.17,3.49,7.65c0,0.95-0.11,2-0.34,3.14
		l-4.72,25.57c-0.08,0.19-0.19,0.32-0.34,0.38c-0.15,0.06-0.26,0.09-0.34,0.09h-17.2c-0.08,0-0.17-0.03-0.28-0.09
		c-0.11-0.06-0.13-0.19-0.06-0.38l3.82-20.53c0.07-0.38,0.11-0.86,0.11-1.43c0-0.95-0.23-1.54-0.68-1.76
		c-0.45-0.22-1.12-0.33-2.02-0.33c-1.05,0-1.86,0.19-2.42,0.57c-0.56,0.38-0.99,1.36-1.29,2.95l-10.46,55.71
		c-0.08,0.38-0.11,0.86-0.11,1.43c0,0.95,0.23,1.54,0.68,1.76c0.45,0.22,1.05,0.33,1.8,0.33c1.05,0,1.89-0.19,2.53-0.57
		c0.64-0.38,1.11-1.36,1.41-2.95l3.94-21.01c0.07-0.19,0.17-0.32,0.28-0.38c0.11-0.06,0.21-0.09,0.28-0.09h17.2
		c0.07,0,0.19,0.03,0.34,0.09c0.15,0.06,0.19,0.19,0.11,0.38l-4.95,26.71c-0.83,4.31-2.66,7.45-5.51,9.41
		c-2.85,1.97-5.68,3.12-8.49,3.47c-2.81,0.35-6.17,0.52-10.06,0.52c-3.37,0-6.32-0.14-8.83-0.43c-2.51-0.28-4.85-1.19-7.03-2.71
		c-2.17-1.52-3.26-3.93-3.26-7.22c0-0.89,0.11-1.9,0.34-3.04l12.37-66.45c1.12-5.89,3.95-9.71,8.49-11.45
		c4.54-1.74,9.54-2.61,15.01-2.61C373.74,152.67,376.7,152.81,379.25,153.09z"/>
	<path class="st0" d="M428.67,245.64c-0.19,0.06-14.79,0.09-14.86,0.09h-2.29c-0.08,0-14.64-0.03-14.75-0.09
		c-0.11-0.06,14.26-0.16,14.19-0.28l-1.12-41.45l-7.76,41.35c0,0.13-0.06,0.24-0.17,0.33c-0.11,0.09-0.21,0.14-0.28,0.14h-16.87
		c-0.07,0-0.19-0.03-0.34-0.09c-0.15-0.06-0.23-0.19-0.23-0.38l17.09-90.69c0-0.19,0.07-0.32,0.22-0.38
		c0.15-0.06,0.26-0.09,0.34-0.09h16.75c0.07,0,0.19,0.03,0.34,0.09c0.15,0.06,0.23,0.19,0.23,0.38l-7.87,41.54l15.18-41.64
		c0-0.19,0.07-0.3,0.23-0.33c0.15-0.03,0.26-0.05,0.34-0.05h16.75c0.07,0,0.19,0.05,0.34,0.14c0.15,0.09,0.19,0.24,0.11,0.43
		l-16.64,45.73l1.35,44.77C428.95,245.41,428.86,245.57,428.67,245.64z"/>
</g>
<g>
	<path class="st0" d="M246.94,257.28c0.89,0.09,1.74,0.4,2.55,0.93s1.22,1.36,1.22,2.49c0,0.31-0.04,0.65-0.12,1.02l-1.65,8.32
		c-0.03,0.06-0.07,0.1-0.12,0.12c-0.05,0.02-0.09,0.03-0.12,0.03h-6c-0.03,0-0.06-0.01-0.1-0.03s-0.05-0.06-0.02-0.12l1.33-6.68
		c0.03-0.12,0.04-0.28,0.04-0.46c0-0.31-0.08-0.5-0.24-0.57s-0.39-0.11-0.71-0.11c-0.37,0-0.65,0.06-0.84,0.19
		c-0.2,0.12-0.35,0.44-0.45,0.96l-3.65,18.13c-0.03,0.12-0.04,0.28-0.04,0.46c0,0.31,0.08,0.5,0.24,0.57
		c0.16,0.07,0.37,0.11,0.63,0.11c0.37,0,0.66-0.06,0.88-0.19c0.22-0.12,0.39-0.44,0.49-0.96l1.37-6.84c0.03-0.06,0.06-0.1,0.1-0.12
		s0.07-0.03,0.1-0.03h6c0.03,0,0.06,0.01,0.12,0.03c0.05,0.02,0.06,0.06,0.04,0.12l-1.72,8.69c-0.29,1.4-0.93,2.42-1.92,3.06
		c-0.99,0.64-1.98,1.02-2.96,1.13c-0.98,0.11-2.15,0.17-3.51,0.17c-1.18,0-2.2-0.05-3.08-0.14c-0.88-0.09-1.69-0.39-2.45-0.88
		c-0.76-0.5-1.14-1.28-1.14-2.35c0-0.29,0.04-0.62,0.12-0.99l4.31-21.62c0.39-1.92,1.38-3.16,2.96-3.73
		c1.58-0.57,3.33-0.85,5.23-0.85C245.02,257.14,246.05,257.19,246.94,257.28z"/>
	<path class="st0" d="M280.96,257.76l-5.96,29.51c0,0.06-0.03,0.1-0.08,0.12c-0.05,0.02-0.09,0.03-0.12,0.03h-5.84
		c-0.03,0-0.07-0.01-0.12-0.03c-0.05-0.02-0.08-0.06-0.08-0.12l2.47-12.25h-2.55l-2.47,12.25c0,0.06-0.02,0.1-0.06,0.12
		c-0.04,0.02-0.07,0.03-0.1,0.03h-5.88c-0.03,0-0.06-0.01-0.12-0.03c-0.05-0.02-0.08-0.06-0.08-0.12l5.96-29.51
		c0-0.06,0.03-0.1,0.08-0.12s0.09-0.03,0.12-0.03h5.88c0.1,0,0.16,0.05,0.16,0.15l-2.51,12.34h2.55l2.51-12.34
		c0-0.06,0.02-0.1,0.06-0.12s0.07-0.03,0.1-0.03h5.88C280.9,257.61,280.96,257.66,280.96,257.76z"/>
	<path class="st0" d="M305.33,287.38c-0.07,0.03-0.11,0.05-0.14,0.05h-5.88c-0.03,0-0.06-0.01-0.1-0.03
		c-0.04-0.02-0.07-0.06-0.1-0.12l0.39-4.98h-2.63l-1.65,4.98c-0.03,0.06-0.06,0.1-0.1,0.12c-0.04,0.02-0.07,0.03-0.1,0.03h-5.88
		c-0.03,0-0.06-0.02-0.12-0.05c-0.05-0.03-0.06-0.08-0.04-0.14l11.01-29.48c0-0.06,0.02-0.1,0.06-0.12c0.04-0.02,0.07-0.03,0.1-0.03
		h5.88c0.13,0,0.2,0.05,0.2,0.15l-0.82,29.48C305.42,287.3,305.39,287.35,305.33,287.38z M298.45,277.34h1.45l0.94-8.29
		L298.45,277.34z"/>
	<path class="st0" d="M337.82,258.24c1.35,0.42,2.02,1.4,2.02,2.92c0,0.29-0.04,0.61-0.12,0.96l-1.53,7.58
		c-0.26,1.34-0.61,2.37-1.04,3.08c-0.43,0.71-1.22,1.27-2.37,1.67c-1.15,0.4-2.86,0.6-5.13,0.6h-1.22l-2.47,12.22
		c0,0.06-0.03,0.1-0.08,0.12c-0.05,0.02-0.09,0.03-0.12,0.03h-5.84c-0.03,0-0.06-0.01-0.12-0.03c-0.05-0.02-0.08-0.06-0.08-0.12
		l5.96-29.51c0-0.06,0.03-0.1,0.08-0.12s0.09-0.03,0.12-0.03h7.25C334.91,257.61,336.47,257.82,337.82,258.24z M333.06,263.7
		c0.05-0.25,0.08-0.4,0.08-0.46c0-0.21-0.07-0.36-0.22-0.46c-0.14-0.1-0.4-0.15-0.76-0.15h-1.21l-1.53,7.46h1.25
		c0.37,0,0.65-0.06,0.86-0.19c0.21-0.12,0.37-0.43,0.47-0.93L333.06,263.7z"/>
	<path class="st0" d="M369.55,257.67c0.03,0.04,0.04,0.07,0.04,0.09l-0.94,4.61c0,0.02-0.02,0.05-0.06,0.09
		c-0.04,0.04-0.1,0.06-0.18,0.06h-4.19l-4.98,24.75c0,0.06-0.03,0.1-0.08,0.12c-0.05,0.02-0.09,0.03-0.12,0.03h-5.84
		c-0.03,0-0.07-0.01-0.12-0.03c-0.05-0.02-0.08-0.06-0.08-0.12l4.98-24.75h-4.19c-0.08,0-0.12-0.02-0.14-0.06
		c-0.01-0.04-0.02-0.07-0.02-0.09l0.94-4.61c0-0.02,0.01-0.05,0.04-0.09c0.03-0.04,0.08-0.06,0.16-0.06h14.62
		C369.47,257.61,369.52,257.63,369.55,257.67z"/>
	<path class="st0" d="M388.99,262.52l-1.53,7.58h5.25c0.08,0,0.13,0.02,0.16,0.06c0.03,0.04,0.04,0.07,0.04,0.09l-0.94,4.61
		c0,0.02-0.02,0.05-0.06,0.09c-0.04,0.04-0.1,0.06-0.18,0.06h-5.25l-1.49,7.49h8.04c0.08,0,0.12,0.02,0.14,0.06
		c0.01,0.04,0.02,0.07,0.02,0.09l-0.94,4.61c0,0.02-0.01,0.05-0.04,0.09s-0.08,0.06-0.16,0.06h-14.07c-0.03,0-0.06-0.02-0.12-0.05
		c-0.05-0.03-0.08-0.07-0.08-0.11l5.96-29.51c0-0.06,0.03-0.1,0.08-0.12c0.05-0.02,0.09-0.03,0.12-0.03h14.07
		c0.08,0,0.13,0.02,0.16,0.06c0.03,0.04,0.04,0.07,0.04,0.09l-0.94,4.61c0,0.02-0.02,0.05-0.06,0.09c-0.04,0.04-0.1,0.06-0.18,0.06
		H388.99z"/>
	<path class="st0" d="M422.72,287.4c-0.07,0.02-0.11,0.03-0.14,0.03h-5.84c-0.03,0-0.06,0-0.1-0.02c-0.04-0.01-0.07-0.05-0.1-0.11
		l-0.35-12.25h-0.27h-0.24l-2.47,12.22c0,0.06-0.03,0.1-0.08,0.12c-0.05,0.02-0.09,0.03-0.12,0.03h-5.84
		c-0.03,0-0.06-0.01-0.12-0.03c-0.05-0.02-0.08-0.06-0.08-0.12l5.96-29.51c0-0.06,0.03-0.1,0.08-0.12c0.05-0.02,0.09-0.03,0.12-0.03
		h7.68c4.21,0,6.31,1.16,6.31,3.46c0,0.31-0.04,0.62-0.12,0.93l-1.57,7.7c-0.16,0.91-0.32,1.6-0.49,2.09
		c-0.17,0.49-0.49,0.97-0.96,1.45c-0.47,0.48-1.16,0.9-2.08,1.25l0.9,12.75C422.82,287.32,422.78,287.38,422.72,287.4z
		 M418.78,269.87c0.21-0.13,0.37-0.45,0.47-0.94l1.06-5.23c0.03-0.12,0.04-0.27,0.04-0.43c0-0.29-0.08-0.47-0.23-0.54
		c-0.16-0.07-0.41-0.11-0.75-0.11h-1.18l-1.53,7.46H418C418.31,270.07,418.57,270.01,418.78,269.87z"/>
</g>
<path class="st1" d="M537.49,133.97h-46.01l-39.75,108.54l-3.57,35.29h43.77l-3.13,26.35h30.82l2.23-25.91h12.95l2.23-29.48h-11.61
	L537.49,133.97z M494.17,247.87h-17.42l25.46-71.02L494.17,247.87z"/>
</svg>
