<?xml version="1.0" encoding="utf-8"?>
<!-- Svg Vector Icons : http://www.onlinewebfonts.com/icon -->
<!DOCTYPE svg PUBLIC "-//W3C//DTD SVG 1.1//EN" "http://www.w3.org/Graphics/SVG/1.1/DTD/svg11.dtd">
<svg version="1.1" xmlns="http://www.w3.org/2000/svg" xmlns:xlink="http://www.w3.org/1999/xlink" x="0px" y="0px" viewBox="0 0 256 256" enable-background="new 0 0 256 256" xml:space="preserve">
<metadata> Svg Vector Icons : http://www.onlinewebfonts.com/icon </metadata>
<g><g><path fill="#000000" d="M128,246c-65.2,0-118-52.8-118-118C10,62.8,62.8,10,128,10c65.2,0,118,52.8,118,118C246,193.2,193.2,246,128,246z M226.7,165.3h-29.4c-9.3,29.7-30.3,54.1-57.7,67.5C179.7,228.4,212.9,201.7,226.7,165.3z M190.1,131.1c0-9.4-1.3-18.8-3.5-28h-52.4v49.7h53.6C189.3,145.8,190.1,138.6,190.1,131.1z M121.8,165.3h-49c9.1,24,26.8,46.5,49.2,58.4L121.8,165.3z M121.8,152.9v-49.7H68.7c-1.8,8.1-2.8,16.5-2.8,24.9c0,8.6,1,16.9,3,24.9H121.8z M121.8,90.7V30.7C99,43.6,81.3,64.7,72.3,90.7L121.8,90.7L121.8,90.7z M182.8,90.7c-9.2-25.3-26.6-47.2-48.6-59.8v59.8H182.8z M134.2,165.3v60c23.5-12.7,41.7-34.1,50.3-60H134.2z M121.8,233.3V231V233.3c-28.8-12.2-51.4-38.5-61.9-68.1H29.3C43.7,203.3,79.3,230.9,121.8,233.3z M25.6,102.8c-2.1,8.2-3.2,16.4-3.2,25.2c0,8.6,1.1,16.9,3.1,24.9h30.8c-1.8-8-2.9-16.3-2.9-24.9c0-8.4,1-16.7,2.8-24.9H28.6C27.6,103.1,26.5,103.3,25.6,102.8z M29.3,90.7h30.2c9.3-28.3,31.5-53.7,56.4-67.8C77.4,28.4,42.7,55.3,29.3,90.7z M138.9,23.1c26.1,13.5,46.5,38.5,56.6,67.6h31.2C212.8,54.1,179.3,27.3,138.9,23.1z M199.2,103.1c2.2,9.1,3.3,18.5,3.3,28c0,7.4-0.8,14.7-2.1,21.7h30.1c1.9-8,3.1-16.3,3.1-24.9c0-8.6-1.1-16.9-3.1-24.9L199.2,103.1L199.2,103.1z"/></g></g>
</svg>