<?xml version="1.0" encoding="utf-8"?>
<!-- Svg Vector Icons : http://www.onlinewebfonts.com/icon -->
<!DOCTYPE svg PUBLIC "-//W3C//DTD SVG 1.1//EN" "http://www.w3.org/Graphics/SVG/1.1/DTD/svg11.dtd">
<svg version="1.1" xmlns="http://www.w3.org/2000/svg" xmlns:xlink="http://www.w3.org/1999/xlink" x="0px" y="0px" viewBox="0 0 256 256" enable-background="new 0 0 256 256" xml:space="preserve">
<metadata> Svg Vector Icons : http://www.onlinewebfonts.com/icon </metadata>
<g><g><g><g><path fill="#000000" d="M106.5,153.9c17.7-9.2,35.3-18.3,53-27.5c-17.8-9.3-35.3-18.4-53-27.6C106.5,117.2,106.5,135.4,106.5,153.9z"/><path fill="#000000" d="M128,10C62.8,10,10,62.8,10,128c0,65.2,52.8,118,118,118c65.2,0,118-52.8,118-118C246,62.8,193.2,10,128,10z M208.4,167.4c-2,8.9-9.3,15.4-18,16.4c-20.7,2.3-41.6,2.3-62.4,2.3c-20.8,0-41.7,0-62.4-2.3c-8.7-1-16-7.5-18-16.4c-2.9-12.6-2.9-26.4-2.9-39.4c0-13,0-26.8,2.9-39.4c2-8.9,9.3-15.4,18-16.4c20.7-2.3,41.6-2.3,62.4-2.3c20.8,0,41.7,0,62.4,2.3c8.7,1,16,7.5,18,16.4c2.9,12.6,2.9,26.4,2.9,39.4C211.3,141,211.3,154.8,208.4,167.4z"/></g></g><g></g><g></g><g></g><g></g><g></g><g></g><g></g><g></g><g></g><g></g><g></g><g></g><g></g><g></g><g></g></g></g>
</svg>